<mxfile host="app.diagrams.net" modified="2022-01-28T07:45:53.510Z" agent="5.0 (Macintosh; Intel Mac OS X 10_15_7) AppleWebKit/537.36 (KHTML, like Gecko) Chrome/97.0.4692.99 Safari/537.36" etag="QBh8eN5cPykvQOd7q9WJ" version="16.4.11" type="github" pages="3">
  <diagram id="vrSnZdiB6sLs9gScs7zp" name="Page-1">
    <mxGraphModel dx="2066" dy="1154" grid="0" gridSize="10" guides="1" tooltips="1" connect="1" arrows="1" fold="1" page="1" pageScale="1" pageWidth="850" pageHeight="1100" math="0" shadow="0">
      <root>
        <mxCell id="0" />
        <mxCell id="1" parent="0" />
        <mxCell id="lbDgCDjzgHXsv_Gr9alT-24" value="" style="rounded=0;whiteSpace=wrap;html=1;fillColor=none;" parent="1" vertex="1">
          <mxGeometry x="701" y="503" width="210" height="225" as="geometry" />
        </mxCell>
        <mxCell id="lbDgCDjzgHXsv_Gr9alT-1" value="locked_inventory_tab" style="shape=table;startSize=30;container=1;collapsible=1;childLayout=tableLayout;fixedRows=1;rowLines=0;fontStyle=1;align=center;resizeLast=1;" parent="1" vertex="1">
          <mxGeometry x="170" y="380" width="180" height="210" as="geometry" />
        </mxCell>
        <mxCell id="lbDgCDjzgHXsv_Gr9alT-2" value="" style="shape=tableRow;horizontal=0;startSize=0;swimlaneHead=0;swimlaneBody=0;fillColor=none;collapsible=0;dropTarget=0;points=[[0,0.5],[1,0.5]];portConstraint=eastwest;top=0;left=0;right=0;bottom=1;" parent="lbDgCDjzgHXsv_Gr9alT-1" vertex="1">
          <mxGeometry y="30" width="180" height="30" as="geometry" />
        </mxCell>
        <mxCell id="lbDgCDjzgHXsv_Gr9alT-3" value="PK" style="shape=partialRectangle;connectable=0;fillColor=none;top=0;left=0;bottom=0;right=0;fontStyle=1;overflow=hidden;" parent="lbDgCDjzgHXsv_Gr9alT-2" vertex="1">
          <mxGeometry width="30" height="30" as="geometry">
            <mxRectangle width="30" height="30" as="alternateBounds" />
          </mxGeometry>
        </mxCell>
        <mxCell id="lbDgCDjzgHXsv_Gr9alT-4" value="id" style="shape=partialRectangle;connectable=0;fillColor=none;top=0;left=0;bottom=0;right=0;align=left;spacingLeft=6;fontStyle=5;overflow=hidden;" parent="lbDgCDjzgHXsv_Gr9alT-2" vertex="1">
          <mxGeometry x="30" width="150" height="30" as="geometry">
            <mxRectangle width="150" height="30" as="alternateBounds" />
          </mxGeometry>
        </mxCell>
        <mxCell id="lbDgCDjzgHXsv_Gr9alT-5" value="" style="shape=tableRow;horizontal=0;startSize=0;swimlaneHead=0;swimlaneBody=0;fillColor=none;collapsible=0;dropTarget=0;points=[[0,0.5],[1,0.5]];portConstraint=eastwest;top=0;left=0;right=0;bottom=0;" parent="lbDgCDjzgHXsv_Gr9alT-1" vertex="1">
          <mxGeometry y="60" width="180" height="30" as="geometry" />
        </mxCell>
        <mxCell id="lbDgCDjzgHXsv_Gr9alT-6" value="" style="shape=partialRectangle;connectable=0;fillColor=none;top=0;left=0;bottom=0;right=0;editable=1;overflow=hidden;" parent="lbDgCDjzgHXsv_Gr9alT-5" vertex="1">
          <mxGeometry width="30" height="30" as="geometry">
            <mxRectangle width="30" height="30" as="alternateBounds" />
          </mxGeometry>
        </mxCell>
        <mxCell id="lbDgCDjzgHXsv_Gr9alT-7" value="checkout_id" style="shape=partialRectangle;connectable=0;fillColor=none;top=0;left=0;bottom=0;right=0;align=left;spacingLeft=6;overflow=hidden;" parent="lbDgCDjzgHXsv_Gr9alT-5" vertex="1">
          <mxGeometry x="30" width="150" height="30" as="geometry">
            <mxRectangle width="150" height="30" as="alternateBounds" />
          </mxGeometry>
        </mxCell>
        <mxCell id="lbDgCDjzgHXsv_Gr9alT-8" value="" style="shape=tableRow;horizontal=0;startSize=0;swimlaneHead=0;swimlaneBody=0;fillColor=none;collapsible=0;dropTarget=0;points=[[0,0.5],[1,0.5]];portConstraint=eastwest;top=0;left=0;right=0;bottom=0;" parent="lbDgCDjzgHXsv_Gr9alT-1" vertex="1">
          <mxGeometry y="90" width="180" height="30" as="geometry" />
        </mxCell>
        <mxCell id="lbDgCDjzgHXsv_Gr9alT-9" value="" style="shape=partialRectangle;connectable=0;fillColor=none;top=0;left=0;bottom=0;right=0;editable=1;overflow=hidden;" parent="lbDgCDjzgHXsv_Gr9alT-8" vertex="1">
          <mxGeometry width="30" height="30" as="geometry">
            <mxRectangle width="30" height="30" as="alternateBounds" />
          </mxGeometry>
        </mxCell>
        <mxCell id="lbDgCDjzgHXsv_Gr9alT-10" value="rule_id" style="shape=partialRectangle;connectable=0;fillColor=none;top=0;left=0;bottom=0;right=0;align=left;spacingLeft=6;overflow=hidden;" parent="lbDgCDjzgHXsv_Gr9alT-8" vertex="1">
          <mxGeometry x="30" width="150" height="30" as="geometry">
            <mxRectangle width="150" height="30" as="alternateBounds" />
          </mxGeometry>
        </mxCell>
        <mxCell id="lbDgCDjzgHXsv_Gr9alT-11" value="" style="shape=tableRow;horizontal=0;startSize=0;swimlaneHead=0;swimlaneBody=0;fillColor=none;collapsible=0;dropTarget=0;points=[[0,0.5],[1,0.5]];portConstraint=eastwest;top=0;left=0;right=0;bottom=0;" parent="lbDgCDjzgHXsv_Gr9alT-1" vertex="1">
          <mxGeometry y="120" width="180" height="30" as="geometry" />
        </mxCell>
        <mxCell id="lbDgCDjzgHXsv_Gr9alT-12" value="" style="shape=partialRectangle;connectable=0;fillColor=none;top=0;left=0;bottom=0;right=0;editable=1;overflow=hidden;" parent="lbDgCDjzgHXsv_Gr9alT-11" vertex="1">
          <mxGeometry width="30" height="30" as="geometry">
            <mxRectangle width="30" height="30" as="alternateBounds" />
          </mxGeometry>
        </mxCell>
        <mxCell id="lbDgCDjzgHXsv_Gr9alT-13" value="quantity" style="shape=partialRectangle;connectable=0;fillColor=none;top=0;left=0;bottom=0;right=0;align=left;spacingLeft=6;overflow=hidden;" parent="lbDgCDjzgHXsv_Gr9alT-11" vertex="1">
          <mxGeometry x="30" width="150" height="30" as="geometry">
            <mxRectangle width="150" height="30" as="alternateBounds" />
          </mxGeometry>
        </mxCell>
        <mxCell id="lbDgCDjzgHXsv_Gr9alT-14" value="" style="shape=tableRow;horizontal=0;startSize=0;swimlaneHead=0;swimlaneBody=0;fillColor=none;collapsible=0;dropTarget=0;points=[[0,0.5],[1,0.5]];portConstraint=eastwest;top=0;left=0;right=0;bottom=0;" parent="lbDgCDjzgHXsv_Gr9alT-1" vertex="1">
          <mxGeometry y="150" width="180" height="30" as="geometry" />
        </mxCell>
        <mxCell id="lbDgCDjzgHXsv_Gr9alT-15" value="" style="shape=partialRectangle;connectable=0;fillColor=none;top=0;left=0;bottom=0;right=0;editable=1;overflow=hidden;" parent="lbDgCDjzgHXsv_Gr9alT-14" vertex="1">
          <mxGeometry width="30" height="30" as="geometry">
            <mxRectangle width="30" height="30" as="alternateBounds" />
          </mxGeometry>
        </mxCell>
        <mxCell id="lbDgCDjzgHXsv_Gr9alT-16" value="amount" style="shape=partialRectangle;connectable=0;fillColor=none;top=0;left=0;bottom=0;right=0;align=left;spacingLeft=6;overflow=hidden;" parent="lbDgCDjzgHXsv_Gr9alT-14" vertex="1">
          <mxGeometry x="30" width="150" height="30" as="geometry">
            <mxRectangle width="150" height="30" as="alternateBounds" />
          </mxGeometry>
        </mxCell>
        <mxCell id="lbDgCDjzgHXsv_Gr9alT-17" value="" style="shape=tableRow;horizontal=0;startSize=0;swimlaneHead=0;swimlaneBody=0;fillColor=none;collapsible=0;dropTarget=0;points=[[0,0.5],[1,0.5]];portConstraint=eastwest;top=0;left=0;right=0;bottom=0;" parent="lbDgCDjzgHXsv_Gr9alT-1" vertex="1">
          <mxGeometry y="180" width="180" height="30" as="geometry" />
        </mxCell>
        <mxCell id="lbDgCDjzgHXsv_Gr9alT-18" value="" style="shape=partialRectangle;connectable=0;fillColor=none;top=0;left=0;bottom=0;right=0;editable=1;overflow=hidden;" parent="lbDgCDjzgHXsv_Gr9alT-17" vertex="1">
          <mxGeometry width="30" height="30" as="geometry">
            <mxRectangle width="30" height="30" as="alternateBounds" />
          </mxGeometry>
        </mxCell>
        <mxCell id="lbDgCDjzgHXsv_Gr9alT-19" value="create_time" style="shape=partialRectangle;connectable=0;fillColor=none;top=0;left=0;bottom=0;right=0;align=left;spacingLeft=6;overflow=hidden;" parent="lbDgCDjzgHXsv_Gr9alT-17" vertex="1">
          <mxGeometry x="30" width="150" height="30" as="geometry">
            <mxRectangle width="150" height="30" as="alternateBounds" />
          </mxGeometry>
        </mxCell>
        <mxCell id="lbDgCDjzgHXsv_Gr9alT-20" value="A" style="shape=umlLifeline;perimeter=lifelinePerimeter;whiteSpace=wrap;html=1;container=1;collapsible=0;recursiveResize=0;outlineConnect=0;" parent="1" vertex="1">
          <mxGeometry x="767" y="415" width="100" height="488" as="geometry" />
        </mxCell>
        <mxCell id="lbDgCDjzgHXsv_Gr9alT-21" value="B" style="shape=umlLifeline;perimeter=lifelinePerimeter;whiteSpace=wrap;html=1;container=1;collapsible=0;recursiveResize=0;outlineConnect=0;" parent="1" vertex="1">
          <mxGeometry x="986" y="415" width="100" height="470" as="geometry" />
        </mxCell>
        <mxCell id="lbDgCDjzgHXsv_Gr9alT-22" value="insert A" style="rounded=0;whiteSpace=wrap;html=1;" parent="1" vertex="1">
          <mxGeometry x="764" y="527" width="120" height="47" as="geometry" />
        </mxCell>
        <mxCell id="lbDgCDjzgHXsv_Gr9alT-23" value="delete A" style="rounded=0;whiteSpace=wrap;html=1;" parent="1" vertex="1">
          <mxGeometry x="974" y="577" width="120" height="47" as="geometry" />
        </mxCell>
        <mxCell id="lbDgCDjzgHXsv_Gr9alT-25" value="insert B" style="rounded=0;whiteSpace=wrap;html=1;" parent="1" vertex="1">
          <mxGeometry x="761" y="626" width="120" height="47" as="geometry" />
        </mxCell>
        <mxCell id="lbDgCDjzgHXsv_Gr9alT-26" value="transaction" style="text;html=1;strokeColor=none;fillColor=none;align=center;verticalAlign=middle;whiteSpace=wrap;rounded=0;" parent="1" vertex="1">
          <mxGeometry x="702" y="502" width="60" height="30" as="geometry" />
        </mxCell>
        <mxCell id="lbDgCDjzgHXsv_Gr9alT-27" value="if deleting data does not exist, they do not lock.&lt;br&gt;if inserting data does exist, it fail fastly?&lt;br&gt;&lt;br&gt;&lt;br&gt;multiple transactions inserting the same data?" style="text;html=1;strokeColor=none;fillColor=none;align=center;verticalAlign=middle;whiteSpace=wrap;rounded=0;" parent="1" vertex="1">
          <mxGeometry x="658" y="914" width="289" height="97" as="geometry" />
        </mxCell>
      </root>
    </mxGraphModel>
  </diagram>
  <diagram id="PE0LB2QB8iWTYNJEiUhC" name="workspec">
    <mxGraphModel dx="3025" dy="1215" grid="0" gridSize="10" guides="1" tooltips="1" connect="1" arrows="1" fold="1" page="1" pageScale="1" pageWidth="850" pageHeight="1100" math="0" shadow="0">
      <root>
        <mxCell id="Yg-qEPUd8cMUOyVQ7tKT-0" />
        <mxCell id="Yg-qEPUd8cMUOyVQ7tKT-1" parent="Yg-qEPUd8cMUOyVQ7tKT-0" />
        <mxCell id="Yg-qEPUd8cMUOyVQ7tKT-9" style="rounded=0;orthogonalLoop=1;jettySize=auto;html=1;entryX=0.5;entryY=0;entryDx=0;entryDy=0;exitX=0.5;exitY=1;exitDx=0;exitDy=0;" edge="1" parent="Yg-qEPUd8cMUOyVQ7tKT-1" source="Ww1WHLd9ID2pXVhLVSBD-36" target="Yg-qEPUd8cMUOyVQ7tKT-3">
          <mxGeometry relative="1" as="geometry" />
        </mxCell>
        <mxCell id="Yg-qEPUd8cMUOyVQ7tKT-10" style="edgeStyle=none;rounded=0;orthogonalLoop=1;jettySize=auto;html=1;entryX=0.5;entryY=0;entryDx=0;entryDy=0;" edge="1" parent="Yg-qEPUd8cMUOyVQ7tKT-1" source="Yg-qEPUd8cMUOyVQ7tKT-2" target="Yg-qEPUd8cMUOyVQ7tKT-4">
          <mxGeometry relative="1" as="geometry" />
        </mxCell>
        <mxCell id="Yg-qEPUd8cMUOyVQ7tKT-11" style="edgeStyle=none;rounded=0;orthogonalLoop=1;jettySize=auto;html=1;entryX=0.5;entryY=0;entryDx=0;entryDy=0;" edge="1" parent="Yg-qEPUd8cMUOyVQ7tKT-1" source="Yg-qEPUd8cMUOyVQ7tKT-2" target="Yg-qEPUd8cMUOyVQ7tKT-5">
          <mxGeometry relative="1" as="geometry" />
        </mxCell>
        <mxCell id="Ww1WHLd9ID2pXVhLVSBD-37" style="edgeStyle=none;rounded=0;orthogonalLoop=1;jettySize=auto;html=1;entryX=0.5;entryY=0;entryDx=0;entryDy=0;" edge="1" parent="Yg-qEPUd8cMUOyVQ7tKT-1" source="Yg-qEPUd8cMUOyVQ7tKT-2" target="Ww1WHLd9ID2pXVhLVSBD-35">
          <mxGeometry relative="1" as="geometry" />
        </mxCell>
        <mxCell id="Ww1WHLd9ID2pXVhLVSBD-38" style="edgeStyle=none;rounded=0;orthogonalLoop=1;jettySize=auto;html=1;entryX=0.5;entryY=0;entryDx=0;entryDy=0;" edge="1" parent="Yg-qEPUd8cMUOyVQ7tKT-1" source="Yg-qEPUd8cMUOyVQ7tKT-2" target="Ww1WHLd9ID2pXVhLVSBD-36">
          <mxGeometry relative="1" as="geometry" />
        </mxCell>
        <mxCell id="Yg-qEPUd8cMUOyVQ7tKT-2" value="排查问题" style="rounded=0;whiteSpace=wrap;html=1;" vertex="1" parent="Yg-qEPUd8cMUOyVQ7tKT-1">
          <mxGeometry x="365" y="384" width="120" height="60" as="geometry" />
        </mxCell>
        <mxCell id="Yg-qEPUd8cMUOyVQ7tKT-12" style="edgeStyle=none;rounded=0;orthogonalLoop=1;jettySize=auto;html=1;entryX=0.5;entryY=0;entryDx=0;entryDy=0;" edge="1" parent="Yg-qEPUd8cMUOyVQ7tKT-1" source="Yg-qEPUd8cMUOyVQ7tKT-3" target="Yg-qEPUd8cMUOyVQ7tKT-8">
          <mxGeometry relative="1" as="geometry" />
        </mxCell>
        <mxCell id="Yg-qEPUd8cMUOyVQ7tKT-20" style="edgeStyle=none;rounded=0;orthogonalLoop=1;jettySize=auto;html=1;entryX=0.5;entryY=0;entryDx=0;entryDy=0;" edge="1" parent="Yg-qEPUd8cMUOyVQ7tKT-1" source="Yg-qEPUd8cMUOyVQ7tKT-3" target="Yg-qEPUd8cMUOyVQ7tKT-19">
          <mxGeometry relative="1" as="geometry" />
        </mxCell>
        <mxCell id="Yg-qEPUd8cMUOyVQ7tKT-3" value="场景复现" style="rounded=0;whiteSpace=wrap;html=1;" vertex="1" parent="Yg-qEPUd8cMUOyVQ7tKT-1">
          <mxGeometry x="186" y="706" width="120" height="60" as="geometry" />
        </mxCell>
        <mxCell id="Yg-qEPUd8cMUOyVQ7tKT-24" style="edgeStyle=none;rounded=0;orthogonalLoop=1;jettySize=auto;html=1;entryX=0.5;entryY=0;entryDx=0;entryDy=0;" edge="1" parent="Yg-qEPUd8cMUOyVQ7tKT-1" source="Yg-qEPUd8cMUOyVQ7tKT-4" target="Yg-qEPUd8cMUOyVQ7tKT-23">
          <mxGeometry relative="1" as="geometry" />
        </mxCell>
        <mxCell id="Yg-qEPUd8cMUOyVQ7tKT-4" value="write SQL" style="rounded=0;whiteSpace=wrap;html=1;" vertex="1" parent="Yg-qEPUd8cMUOyVQ7tKT-1">
          <mxGeometry x="423" y="582" width="120" height="60" as="geometry" />
        </mxCell>
        <mxCell id="Yg-qEPUd8cMUOyVQ7tKT-13" style="edgeStyle=none;rounded=0;orthogonalLoop=1;jettySize=auto;html=1;entryX=0.5;entryY=0;entryDx=0;entryDy=0;" edge="1" parent="Yg-qEPUd8cMUOyVQ7tKT-1" source="Yg-qEPUd8cMUOyVQ7tKT-5" target="Yg-qEPUd8cMUOyVQ7tKT-6">
          <mxGeometry relative="1" as="geometry" />
        </mxCell>
        <mxCell id="Yg-qEPUd8cMUOyVQ7tKT-14" style="edgeStyle=none;rounded=0;orthogonalLoop=1;jettySize=auto;html=1;entryX=0.5;entryY=0;entryDx=0;entryDy=0;" edge="1" parent="Yg-qEPUd8cMUOyVQ7tKT-1" source="Yg-qEPUd8cMUOyVQ7tKT-5" target="Yg-qEPUd8cMUOyVQ7tKT-7">
          <mxGeometry relative="1" as="geometry" />
        </mxCell>
        <mxCell id="Yg-qEPUd8cMUOyVQ7tKT-5" value="流程" style="rounded=0;whiteSpace=wrap;html=1;" vertex="1" parent="Yg-qEPUd8cMUOyVQ7tKT-1">
          <mxGeometry x="761" y="584" width="120" height="60" as="geometry" />
        </mxCell>
        <mxCell id="Ww1WHLd9ID2pXVhLVSBD-19" style="edgeStyle=none;rounded=0;orthogonalLoop=1;jettySize=auto;html=1;entryX=0.5;entryY=0;entryDx=0;entryDy=0;" edge="1" parent="Yg-qEPUd8cMUOyVQ7tKT-1" source="Yg-qEPUd8cMUOyVQ7tKT-6" target="Ww1WHLd9ID2pXVhLVSBD-17">
          <mxGeometry relative="1" as="geometry" />
        </mxCell>
        <mxCell id="Ww1WHLd9ID2pXVhLVSBD-20" style="edgeStyle=none;rounded=0;orthogonalLoop=1;jettySize=auto;html=1;entryX=0.5;entryY=0;entryDx=0;entryDy=0;" edge="1" parent="Yg-qEPUd8cMUOyVQ7tKT-1" source="Yg-qEPUd8cMUOyVQ7tKT-6" target="Ww1WHLd9ID2pXVhLVSBD-12">
          <mxGeometry relative="1" as="geometry" />
        </mxCell>
        <mxCell id="Ww1WHLd9ID2pXVhLVSBD-21" style="edgeStyle=none;rounded=0;orthogonalLoop=1;jettySize=auto;html=1;entryX=0.5;entryY=0;entryDx=0;entryDy=0;" edge="1" parent="Yg-qEPUd8cMUOyVQ7tKT-1" source="Yg-qEPUd8cMUOyVQ7tKT-6" target="Ww1WHLd9ID2pXVhLVSBD-16">
          <mxGeometry relative="1" as="geometry" />
        </mxCell>
        <mxCell id="Ww1WHLd9ID2pXVhLVSBD-22" style="edgeStyle=none;rounded=0;orthogonalLoop=1;jettySize=auto;html=1;entryX=0.5;entryY=0;entryDx=0;entryDy=0;" edge="1" parent="Yg-qEPUd8cMUOyVQ7tKT-1" source="Yg-qEPUd8cMUOyVQ7tKT-6" target="Ww1WHLd9ID2pXVhLVSBD-15">
          <mxGeometry relative="1" as="geometry" />
        </mxCell>
        <mxCell id="Ww1WHLd9ID2pXVhLVSBD-23" style="edgeStyle=none;rounded=0;orthogonalLoop=1;jettySize=auto;html=1;entryX=0.5;entryY=0;entryDx=0;entryDy=0;" edge="1" parent="Yg-qEPUd8cMUOyVQ7tKT-1" source="Yg-qEPUd8cMUOyVQ7tKT-6" target="Ww1WHLd9ID2pXVhLVSBD-18">
          <mxGeometry relative="1" as="geometry" />
        </mxCell>
        <mxCell id="Yg-qEPUd8cMUOyVQ7tKT-6" value="状态流转" style="rounded=0;whiteSpace=wrap;html=1;" vertex="1" parent="Yg-qEPUd8cMUOyVQ7tKT-1">
          <mxGeometry x="676" y="680" width="120" height="60" as="geometry" />
        </mxCell>
        <mxCell id="Yg-qEPUd8cMUOyVQ7tKT-17" style="edgeStyle=none;rounded=0;orthogonalLoop=1;jettySize=auto;html=1;entryX=0.5;entryY=0;entryDx=0;entryDy=0;exitX=0.5;exitY=1;exitDx=0;exitDy=0;" edge="1" parent="Yg-qEPUd8cMUOyVQ7tKT-1" source="Yg-qEPUd8cMUOyVQ7tKT-7" target="Yg-qEPUd8cMUOyVQ7tKT-16">
          <mxGeometry relative="1" as="geometry" />
        </mxCell>
        <mxCell id="Yg-qEPUd8cMUOyVQ7tKT-18" style="edgeStyle=none;rounded=0;orthogonalLoop=1;jettySize=auto;html=1;entryX=0.5;entryY=0;entryDx=0;entryDy=0;exitX=0.5;exitY=1;exitDx=0;exitDy=0;" edge="1" parent="Yg-qEPUd8cMUOyVQ7tKT-1" source="Yg-qEPUd8cMUOyVQ7tKT-7" target="Yg-qEPUd8cMUOyVQ7tKT-15">
          <mxGeometry relative="1" as="geometry" />
        </mxCell>
        <mxCell id="Yg-qEPUd8cMUOyVQ7tKT-26" style="edgeStyle=none;rounded=0;orthogonalLoop=1;jettySize=auto;html=1;entryX=0.5;entryY=0;entryDx=0;entryDy=0;exitX=0.5;exitY=1;exitDx=0;exitDy=0;" edge="1" parent="Yg-qEPUd8cMUOyVQ7tKT-1" source="Yg-qEPUd8cMUOyVQ7tKT-7" target="Yg-qEPUd8cMUOyVQ7tKT-25">
          <mxGeometry relative="1" as="geometry" />
        </mxCell>
        <mxCell id="Ww1WHLd9ID2pXVhLVSBD-8" style="edgeStyle=none;rounded=0;orthogonalLoop=1;jettySize=auto;html=1;entryX=0.5;entryY=0;entryDx=0;entryDy=0;exitX=0.5;exitY=1;exitDx=0;exitDy=0;" edge="1" parent="Yg-qEPUd8cMUOyVQ7tKT-1" source="Yg-qEPUd8cMUOyVQ7tKT-7" target="Ww1WHLd9ID2pXVhLVSBD-7">
          <mxGeometry relative="1" as="geometry" />
        </mxCell>
        <mxCell id="Ww1WHLd9ID2pXVhLVSBD-10" style="edgeStyle=none;rounded=0;orthogonalLoop=1;jettySize=auto;html=1;entryX=0.5;entryY=0;entryDx=0;entryDy=0;exitX=0.5;exitY=1;exitDx=0;exitDy=0;" edge="1" parent="Yg-qEPUd8cMUOyVQ7tKT-1" source="Yg-qEPUd8cMUOyVQ7tKT-7" target="Ww1WHLd9ID2pXVhLVSBD-9">
          <mxGeometry relative="1" as="geometry" />
        </mxCell>
        <mxCell id="Yg-qEPUd8cMUOyVQ7tKT-7" value="上下游" style="rounded=0;whiteSpace=wrap;html=1;" vertex="1" parent="Yg-qEPUd8cMUOyVQ7tKT-1">
          <mxGeometry x="825" y="682" width="120" height="60" as="geometry" />
        </mxCell>
        <mxCell id="Yg-qEPUd8cMUOyVQ7tKT-8" value="日志 -&amp;gt; 请求" style="rounded=0;whiteSpace=wrap;html=1;" vertex="1" parent="Yg-qEPUd8cMUOyVQ7tKT-1">
          <mxGeometry x="72" y="885" width="89" height="34" as="geometry" />
        </mxCell>
        <mxCell id="Yg-qEPUd8cMUOyVQ7tKT-15" value="数据同步" style="rounded=0;whiteSpace=wrap;html=1;" vertex="1" parent="Yg-qEPUd8cMUOyVQ7tKT-1">
          <mxGeometry x="1429" y="991" width="120" height="60" as="geometry" />
        </mxCell>
        <mxCell id="Yg-qEPUd8cMUOyVQ7tKT-16" value="订单管理" style="rounded=0;whiteSpace=wrap;html=1;" vertex="1" parent="Yg-qEPUd8cMUOyVQ7tKT-1">
          <mxGeometry x="993" y="991" width="120" height="60" as="geometry" />
        </mxCell>
        <mxCell id="Yg-qEPUd8cMUOyVQ7tKT-19" value="日志查询" style="rounded=0;whiteSpace=wrap;html=1;" vertex="1" parent="Yg-qEPUd8cMUOyVQ7tKT-1">
          <mxGeometry x="225" y="887" width="67" height="32" as="geometry" />
        </mxCell>
        <mxCell id="Yg-qEPUd8cMUOyVQ7tKT-21" value="mindmap" style="text;html=1;strokeColor=none;fillColor=none;align=center;verticalAlign=middle;whiteSpace=wrap;rounded=0;" vertex="1" parent="Yg-qEPUd8cMUOyVQ7tKT-1">
          <mxGeometry x="395" y="325" width="60" height="30" as="geometry" />
        </mxCell>
        <mxCell id="Yg-qEPUd8cMUOyVQ7tKT-23" value="分表查询工具" style="rounded=0;whiteSpace=wrap;html=1;" vertex="1" parent="Yg-qEPUd8cMUOyVQ7tKT-1">
          <mxGeometry x="412" y="712" width="120" height="60" as="geometry" />
        </mxCell>
        <mxCell id="Yg-qEPUd8cMUOyVQ7tKT-25" value="账单" style="rounded=0;whiteSpace=wrap;html=1;" vertex="1" parent="Yg-qEPUd8cMUOyVQ7tKT-1">
          <mxGeometry x="1120" y="991" width="120" height="60" as="geometry" />
        </mxCell>
        <mxCell id="Yg-qEPUd8cMUOyVQ7tKT-27" value="roadmap" style="text;html=1;strokeColor=none;fillColor=none;align=center;verticalAlign=middle;whiteSpace=wrap;rounded=0;" vertex="1" parent="Yg-qEPUd8cMUOyVQ7tKT-1">
          <mxGeometry x="121" y="1260" width="60" height="30" as="geometry" />
        </mxCell>
        <mxCell id="Yg-qEPUd8cMUOyVQ7tKT-28" value="2022.01.28 - 2022.02.06" style="rounded=0;whiteSpace=wrap;html=1;" vertex="1" parent="Yg-qEPUd8cMUOyVQ7tKT-1">
          <mxGeometry x="116" y="1352" width="341" height="46" as="geometry" />
        </mxCell>
        <mxCell id="Yg-qEPUd8cMUOyVQ7tKT-29" value="2022.02.07 - 2022.02.13" style="rounded=0;whiteSpace=wrap;html=1;" vertex="1" parent="Yg-qEPUd8cMUOyVQ7tKT-1">
          <mxGeometry x="457" y="1352" width="341" height="46" as="geometry" />
        </mxCell>
        <mxCell id="Yg-qEPUd8cMUOyVQ7tKT-30" value="2022.02.07 - 2022.02.13" style="rounded=0;whiteSpace=wrap;html=1;" vertex="1" parent="Yg-qEPUd8cMUOyVQ7tKT-1">
          <mxGeometry x="798" y="1352" width="341" height="46" as="geometry" />
        </mxCell>
        <mxCell id="Yg-qEPUd8cMUOyVQ7tKT-31" value="" style="endArrow=none;dashed=1;html=1;dashPattern=1 3;strokeWidth=2;rounded=0;" edge="1" parent="Yg-qEPUd8cMUOyVQ7tKT-1">
          <mxGeometry width="50" height="50" relative="1" as="geometry">
            <mxPoint x="767" y="1785" as="sourcePoint" />
            <mxPoint x="767" y="1398" as="targetPoint" />
          </mxGeometry>
        </mxCell>
        <mxCell id="Yg-qEPUd8cMUOyVQ7tKT-32" value="check line 1" style="text;html=1;strokeColor=none;fillColor=none;align=center;verticalAlign=middle;whiteSpace=wrap;rounded=0;" vertex="1" parent="Yg-qEPUd8cMUOyVQ7tKT-1">
          <mxGeometry x="732" y="1507" width="76" height="30" as="geometry" />
        </mxCell>
        <mxCell id="Yg-qEPUd8cMUOyVQ7tKT-33" value="状态流转" style="rounded=0;whiteSpace=wrap;html=1;" vertex="1" parent="Yg-qEPUd8cMUOyVQ7tKT-1">
          <mxGeometry x="132" y="1434" width="120" height="60" as="geometry" />
        </mxCell>
        <mxCell id="Yg-qEPUd8cMUOyVQ7tKT-34" value="上下游" style="rounded=0;whiteSpace=wrap;html=1;" vertex="1" parent="Yg-qEPUd8cMUOyVQ7tKT-1">
          <mxGeometry x="271" y="1436" width="120" height="60" as="geometry" />
        </mxCell>
        <mxCell id="Yg-qEPUd8cMUOyVQ7tKT-35" value="后台系统" style="rounded=0;whiteSpace=wrap;html=1;" vertex="1" parent="Yg-qEPUd8cMUOyVQ7tKT-1">
          <mxGeometry x="285" y="1521" width="120" height="60" as="geometry" />
        </mxCell>
        <mxCell id="Ww1WHLd9ID2pXVhLVSBD-4" style="edgeStyle=none;rounded=0;orthogonalLoop=1;jettySize=auto;html=1;entryX=0.5;entryY=0;entryDx=0;entryDy=0;" edge="1" parent="Yg-qEPUd8cMUOyVQ7tKT-1" source="Ww1WHLd9ID2pXVhLVSBD-0" target="Ww1WHLd9ID2pXVhLVSBD-2">
          <mxGeometry relative="1" as="geometry" />
        </mxCell>
        <mxCell id="Ww1WHLd9ID2pXVhLVSBD-49" style="edgeStyle=none;rounded=0;orthogonalLoop=1;jettySize=auto;html=1;entryX=0.5;entryY=0;entryDx=0;entryDy=0;" edge="1" parent="Yg-qEPUd8cMUOyVQ7tKT-1" source="Ww1WHLd9ID2pXVhLVSBD-0" target="Ww1WHLd9ID2pXVhLVSBD-1">
          <mxGeometry relative="1" as="geometry" />
        </mxCell>
        <mxCell id="Ww1WHLd9ID2pXVhLVSBD-0" value="值班" style="rounded=0;whiteSpace=wrap;html=1;" vertex="1" parent="Yg-qEPUd8cMUOyVQ7tKT-1">
          <mxGeometry x="1192" y="387" width="120" height="60" as="geometry" />
        </mxCell>
        <mxCell id="Ww1WHLd9ID2pXVhLVSBD-6" style="edgeStyle=none;rounded=0;orthogonalLoop=1;jettySize=auto;html=1;entryX=0.5;entryY=0;entryDx=0;entryDy=0;" edge="1" parent="Yg-qEPUd8cMUOyVQ7tKT-1" source="Ww1WHLd9ID2pXVhLVSBD-1" target="Ww1WHLd9ID2pXVhLVSBD-5">
          <mxGeometry relative="1" as="geometry" />
        </mxCell>
        <mxCell id="Ww1WHLd9ID2pXVhLVSBD-1" value="监控" style="rounded=0;whiteSpace=wrap;html=1;" vertex="1" parent="Yg-qEPUd8cMUOyVQ7tKT-1">
          <mxGeometry x="1099" y="534" width="120" height="60" as="geometry" />
        </mxCell>
        <mxCell id="Ww1WHLd9ID2pXVhLVSBD-2" value="告警" style="rounded=0;whiteSpace=wrap;html=1;" vertex="1" parent="Yg-qEPUd8cMUOyVQ7tKT-1">
          <mxGeometry x="1291" y="525" width="120" height="60" as="geometry" />
        </mxCell>
        <mxCell id="Ww1WHLd9ID2pXVhLVSBD-5" value="QPS，时延全景图" style="rounded=0;whiteSpace=wrap;html=1;" vertex="1" parent="Yg-qEPUd8cMUOyVQ7tKT-1">
          <mxGeometry x="1076" y="646" width="120" height="60" as="geometry" />
        </mxCell>
        <mxCell id="Ww1WHLd9ID2pXVhLVSBD-7" value="risk" style="rounded=0;whiteSpace=wrap;html=1;" vertex="1" parent="Yg-qEPUd8cMUOyVQ7tKT-1">
          <mxGeometry x="1275" y="994" width="120" height="60" as="geometry" />
        </mxCell>
        <mxCell id="Ww1WHLd9ID2pXVhLVSBD-9" value="item bass" style="rounded=0;whiteSpace=wrap;html=1;" vertex="1" parent="Yg-qEPUd8cMUOyVQ7tKT-1">
          <mxGeometry x="818" y="991" width="120" height="60" as="geometry" />
        </mxCell>
        <mxCell id="Ww1WHLd9ID2pXVhLVSBD-12" value="下单" style="rounded=0;whiteSpace=wrap;html=1;" vertex="1" parent="Yg-qEPUd8cMUOyVQ7tKT-1">
          <mxGeometry x="438" y="967" width="70" height="32" as="geometry" />
        </mxCell>
        <mxCell id="Ww1WHLd9ID2pXVhLVSBD-15" value="取消" style="rounded=0;whiteSpace=wrap;html=1;" vertex="1" parent="Yg-qEPUd8cMUOyVQ7tKT-1">
          <mxGeometry x="589" y="967" width="70" height="32" as="geometry" />
        </mxCell>
        <mxCell id="Ww1WHLd9ID2pXVhLVSBD-16" value="支付" style="rounded=0;whiteSpace=wrap;html=1;" vertex="1" parent="Yg-qEPUd8cMUOyVQ7tKT-1">
          <mxGeometry x="515" y="967" width="70" height="32" as="geometry" />
        </mxCell>
        <mxCell id="Ww1WHLd9ID2pXVhLVSBD-17" value="查询" style="rounded=0;whiteSpace=wrap;html=1;" vertex="1" parent="Yg-qEPUd8cMUOyVQ7tKT-1">
          <mxGeometry x="362" y="967" width="70" height="32" as="geometry" />
        </mxCell>
        <mxCell id="Ww1WHLd9ID2pXVhLVSBD-18" value="退款" style="rounded=0;whiteSpace=wrap;html=1;" vertex="1" parent="Yg-qEPUd8cMUOyVQ7tKT-1">
          <mxGeometry x="668" y="967" width="70" height="32" as="geometry" />
        </mxCell>
        <mxCell id="Ww1WHLd9ID2pXVhLVSBD-32" style="edgeStyle=none;rounded=0;orthogonalLoop=1;jettySize=auto;html=1;entryX=0.5;entryY=0;entryDx=0;entryDy=0;" edge="1" parent="Yg-qEPUd8cMUOyVQ7tKT-1" source="Ww1WHLd9ID2pXVhLVSBD-24" target="Ww1WHLd9ID2pXVhLVSBD-29">
          <mxGeometry relative="1" as="geometry" />
        </mxCell>
        <mxCell id="Ww1WHLd9ID2pXVhLVSBD-33" style="edgeStyle=none;rounded=0;orthogonalLoop=1;jettySize=auto;html=1;entryX=0.5;entryY=0;entryDx=0;entryDy=0;exitX=0.5;exitY=1;exitDx=0;exitDy=0;" edge="1" parent="Yg-qEPUd8cMUOyVQ7tKT-1" source="Ww1WHLd9ID2pXVhLVSBD-25" target="Ww1WHLd9ID2pXVhLVSBD-31">
          <mxGeometry relative="1" as="geometry" />
        </mxCell>
        <mxCell id="Ww1WHLd9ID2pXVhLVSBD-34" style="edgeStyle=none;rounded=0;orthogonalLoop=1;jettySize=auto;html=1;entryX=0.5;entryY=0;entryDx=0;entryDy=0;" edge="1" parent="Yg-qEPUd8cMUOyVQ7tKT-1" source="Ww1WHLd9ID2pXVhLVSBD-24" target="Ww1WHLd9ID2pXVhLVSBD-30">
          <mxGeometry relative="1" as="geometry" />
        </mxCell>
        <mxCell id="Ww1WHLd9ID2pXVhLVSBD-24" value="开发" style="rounded=0;whiteSpace=wrap;html=1;" vertex="1" parent="Yg-qEPUd8cMUOyVQ7tKT-1">
          <mxGeometry x="1729" y="387" width="120" height="60" as="geometry" />
        </mxCell>
        <mxCell id="Ww1WHLd9ID2pXVhLVSBD-26" style="edgeStyle=none;rounded=0;orthogonalLoop=1;jettySize=auto;html=1;entryX=0.5;entryY=0;entryDx=0;entryDy=0;exitX=0.5;exitY=1;exitDx=0;exitDy=0;" edge="1" parent="Yg-qEPUd8cMUOyVQ7tKT-1" source="Ww1WHLd9ID2pXVhLVSBD-25" target="Yg-qEPUd8cMUOyVQ7tKT-2">
          <mxGeometry relative="1" as="geometry" />
        </mxCell>
        <mxCell id="Ww1WHLd9ID2pXVhLVSBD-27" style="edgeStyle=none;rounded=0;orthogonalLoop=1;jettySize=auto;html=1;entryX=0.5;entryY=0;entryDx=0;entryDy=0;exitX=0.5;exitY=1;exitDx=0;exitDy=0;" edge="1" parent="Yg-qEPUd8cMUOyVQ7tKT-1" source="Ww1WHLd9ID2pXVhLVSBD-25" target="Ww1WHLd9ID2pXVhLVSBD-0">
          <mxGeometry relative="1" as="geometry" />
        </mxCell>
        <mxCell id="Ww1WHLd9ID2pXVhLVSBD-28" style="edgeStyle=none;rounded=0;orthogonalLoop=1;jettySize=auto;html=1;entryX=0.5;entryY=0;entryDx=0;entryDy=0;exitX=0.5;exitY=1;exitDx=0;exitDy=0;" edge="1" parent="Yg-qEPUd8cMUOyVQ7tKT-1" source="Ww1WHLd9ID2pXVhLVSBD-25" target="Ww1WHLd9ID2pXVhLVSBD-24">
          <mxGeometry relative="1" as="geometry" />
        </mxCell>
        <mxCell id="Ww1WHLd9ID2pXVhLVSBD-25" value="职责" style="rounded=0;whiteSpace=wrap;html=1;" vertex="1" parent="Yg-qEPUd8cMUOyVQ7tKT-1">
          <mxGeometry x="1172" y="106" width="120" height="60" as="geometry" />
        </mxCell>
        <mxCell id="Ww1WHLd9ID2pXVhLVSBD-29" value="方案设计" style="rounded=0;whiteSpace=wrap;html=1;" vertex="1" parent="Yg-qEPUd8cMUOyVQ7tKT-1">
          <mxGeometry x="1621" y="490" width="120" height="60" as="geometry" />
        </mxCell>
        <mxCell id="Ww1WHLd9ID2pXVhLVSBD-30" value="优化" style="rounded=0;whiteSpace=wrap;html=1;" vertex="1" parent="Yg-qEPUd8cMUOyVQ7tKT-1">
          <mxGeometry x="1801" y="496" width="120" height="60" as="geometry" />
        </mxCell>
        <mxCell id="Ww1WHLd9ID2pXVhLVSBD-40" style="edgeStyle=none;rounded=0;orthogonalLoop=1;jettySize=auto;html=1;entryX=0.5;entryY=0;entryDx=0;entryDy=0;" edge="1" parent="Yg-qEPUd8cMUOyVQ7tKT-1" source="Ww1WHLd9ID2pXVhLVSBD-31" target="Ww1WHLd9ID2pXVhLVSBD-39">
          <mxGeometry relative="1" as="geometry" />
        </mxCell>
        <mxCell id="Ww1WHLd9ID2pXVhLVSBD-48" style="edgeStyle=none;rounded=0;orthogonalLoop=1;jettySize=auto;html=1;entryX=0.5;entryY=0;entryDx=0;entryDy=0;" edge="1" parent="Yg-qEPUd8cMUOyVQ7tKT-1" source="Ww1WHLd9ID2pXVhLVSBD-31" target="Ww1WHLd9ID2pXVhLVSBD-47">
          <mxGeometry relative="1" as="geometry" />
        </mxCell>
        <mxCell id="Ww1WHLd9ID2pXVhLVSBD-31" value="效率" style="rounded=0;whiteSpace=wrap;html=1;" vertex="1" parent="Yg-qEPUd8cMUOyVQ7tKT-1">
          <mxGeometry x="2126" y="387" width="120" height="60" as="geometry" />
        </mxCell>
        <mxCell id="Ww1WHLd9ID2pXVhLVSBD-35" value="问题预防" style="rounded=0;whiteSpace=wrap;html=1;" vertex="1" parent="Yg-qEPUd8cMUOyVQ7tKT-1">
          <mxGeometry x="-10" y="600" width="120" height="60" as="geometry" />
        </mxCell>
        <mxCell id="Ww1WHLd9ID2pXVhLVSBD-36" value="问题定位" style="rounded=0;whiteSpace=wrap;html=1;" vertex="1" parent="Yg-qEPUd8cMUOyVQ7tKT-1">
          <mxGeometry x="202" y="600" width="120" height="60" as="geometry" />
        </mxCell>
        <mxCell id="Ww1WHLd9ID2pXVhLVSBD-43" style="edgeStyle=none;rounded=0;orthogonalLoop=1;jettySize=auto;html=1;entryX=0.5;entryY=0;entryDx=0;entryDy=0;exitX=0.5;exitY=1;exitDx=0;exitDy=0;" edge="1" parent="Yg-qEPUd8cMUOyVQ7tKT-1" source="Ww1WHLd9ID2pXVhLVSBD-39" target="Ww1WHLd9ID2pXVhLVSBD-41">
          <mxGeometry relative="1" as="geometry" />
        </mxCell>
        <mxCell id="Ww1WHLd9ID2pXVhLVSBD-44" style="edgeStyle=none;rounded=0;orthogonalLoop=1;jettySize=auto;html=1;entryX=0.5;entryY=0;entryDx=0;entryDy=0;exitX=0.5;exitY=1;exitDx=0;exitDy=0;" edge="1" parent="Yg-qEPUd8cMUOyVQ7tKT-1" source="Ww1WHLd9ID2pXVhLVSBD-39" target="Ww1WHLd9ID2pXVhLVSBD-42">
          <mxGeometry relative="1" as="geometry" />
        </mxCell>
        <mxCell id="Ww1WHLd9ID2pXVhLVSBD-46" style="edgeStyle=none;rounded=0;orthogonalLoop=1;jettySize=auto;html=1;entryX=0.5;entryY=0;entryDx=0;entryDy=0;exitX=0.5;exitY=1;exitDx=0;exitDy=0;" edge="1" parent="Yg-qEPUd8cMUOyVQ7tKT-1" source="Ww1WHLd9ID2pXVhLVSBD-39" target="Ww1WHLd9ID2pXVhLVSBD-45">
          <mxGeometry relative="1" as="geometry" />
        </mxCell>
        <mxCell id="Ww1WHLd9ID2pXVhLVSBD-39" value="开发工具" style="rounded=0;whiteSpace=wrap;html=1;" vertex="1" parent="Yg-qEPUd8cMUOyVQ7tKT-1">
          <mxGeometry x="2046" y="487" width="120" height="60" as="geometry" />
        </mxCell>
        <mxCell id="Ww1WHLd9ID2pXVhLVSBD-41" value="GRPC" style="rounded=0;whiteSpace=wrap;html=1;" vertex="1" parent="Yg-qEPUd8cMUOyVQ7tKT-1">
          <mxGeometry x="1950" y="655" width="120" height="60" as="geometry" />
        </mxCell>
        <mxCell id="Ww1WHLd9ID2pXVhLVSBD-42" value="日志" style="rounded=0;whiteSpace=wrap;html=1;" vertex="1" parent="Yg-qEPUd8cMUOyVQ7tKT-1">
          <mxGeometry x="2089" y="655" width="120" height="60" as="geometry" />
        </mxCell>
        <mxCell id="Ww1WHLd9ID2pXVhLVSBD-45" value="Pod登录" style="rounded=0;whiteSpace=wrap;html=1;" vertex="1" parent="Yg-qEPUd8cMUOyVQ7tKT-1">
          <mxGeometry x="2223" y="655" width="120" height="60" as="geometry" />
        </mxCell>
        <mxCell id="Ww1WHLd9ID2pXVhLVSBD-47" value="开发工具" style="rounded=0;whiteSpace=wrap;html=1;" vertex="1" parent="Yg-qEPUd8cMUOyVQ7tKT-1">
          <mxGeometry x="2242" y="487" width="120" height="60" as="geometry" />
        </mxCell>
      </root>
    </mxGraphModel>
  </diagram>
  <diagram id="Q3r0Vzemutd0Jic-wWnY" name="状态流转">
    <mxGraphModel dx="2066" dy="1154" grid="0" gridSize="10" guides="1" tooltips="1" connect="1" arrows="1" fold="1" page="1" pageScale="1" pageWidth="850" pageHeight="1100" math="0" shadow="0">
      <root>
        <mxCell id="Z6aA9Dh2e9hC4RAA0xu--0" />
        <mxCell id="Z6aA9Dh2e9hC4RAA0xu--1" parent="Z6aA9Dh2e9hC4RAA0xu--0" />
      </root>
    </mxGraphModel>
  </diagram>
</mxfile>
